<mxfile host="app.diagrams.net" modified="2023-11-16T23:40:10.556Z" agent="Mozilla/5.0 (Windows NT 10.0; Win64; x64) AppleWebKit/537.36 (KHTML, like Gecko) Chrome/119.0.0.0 Safari/537.36" etag="bVVF-ilD2B7GMfkCkNwE" version="22.1.2" type="device">
  <diagram id="C5RBs43oDa-KdzZeNtuy" name="Page-1">
    <mxGraphModel dx="1562" dy="810" grid="1" gridSize="10" guides="1" tooltips="1" connect="1" arrows="1" fold="1" page="1" pageScale="1" pageWidth="827" pageHeight="1169" math="0" shadow="0">
      <root>
        <mxCell id="WIyWlLk6GJQsqaUBKTNV-0" />
        <mxCell id="WIyWlLk6GJQsqaUBKTNV-1" parent="WIyWlLk6GJQsqaUBKTNV-0" />
        <mxCell id="uOMRUYrI1pACzMCdl_Fx-10" value="intensity&lt;br&gt;" style="shape=folder;fontStyle=1;tabWidth=110;tabHeight=30;tabPosition=left;html=1;boundedLbl=1;labelInHeader=1;container=1;collapsible=0;recursiveResize=0;" parent="WIyWlLk6GJQsqaUBKTNV-1" vertex="1">
          <mxGeometry x="40" y="40" width="430" height="590" as="geometry" />
        </mxCell>
        <mxCell id="uOMRUYrI1pACzMCdl_Fx-4" value="road" style="shape=folder;fontStyle=1;tabWidth=110;tabHeight=30;tabPosition=left;html=1;boundedLbl=1;labelInHeader=1;container=1;collapsible=0;recursiveResize=0;" parent="uOMRUYrI1pACzMCdl_Fx-10" vertex="1">
          <mxGeometry x="10" y="45" width="240" height="525" as="geometry" />
        </mxCell>
        <mxCell id="uOMRUYrI1pACzMCdl_Fx-6" value="Road_Entry#" style="swimlane;fontStyle=1;align=center;verticalAlign=top;childLayout=stackLayout;horizontal=1;startSize=26;horizontalStack=0;resizeParent=1;resizeParentMax=0;resizeLast=0;collapsible=1;marginBottom=0;" parent="uOMRUYrI1pACzMCdl_Fx-4" vertex="1">
          <mxGeometry x="10" y="41" width="210" height="458" as="geometry" />
        </mxCell>
        <mxCell id="uOMRUYrI1pACzMCdl_Fx-7" value="+ uid: uid&#xa;+ vehicle: {&#xa;    + code: string&#xa;    + name: string&#xa;    + weight: tuple&#xa;    + engineType: string&#xa;}&#xa;+ characteristics: {&#xa;    + loadFactor: number&#xa;    + emptyRunning: number&#xa;}&#xa;+ fuel: {&#xa;    + name: string&#xa;    + code: string&#xa;}&#xa;+ fuelConsumption: [array] {&#xa;    + value: number&#xa;    + unit: string&#xa;}&#xa;+ factor: {    &#xa;    + unit: string&#xa;    + wtt: number&#xa;    + ttw: number&#xa;    + wtw: number&#xa;}&#xa;+ region: string" style="text;strokeColor=none;fillColor=none;align=left;verticalAlign=top;spacingLeft=4;spacingRight=4;overflow=hidden;rotatable=0;points=[[0,0.5],[1,0.5]];portConstraint=eastwest;" parent="uOMRUYrI1pACzMCdl_Fx-6" vertex="1">
          <mxGeometry y="26" width="210" height="424" as="geometry" />
        </mxCell>
        <mxCell id="uOMRUYrI1pACzMCdl_Fx-8" value="" style="line;strokeWidth=1;fillColor=none;align=left;verticalAlign=middle;spacingTop=-1;spacingLeft=3;spacingRight=3;rotatable=0;labelPosition=right;points=[];portConstraint=eastwest;strokeColor=inherit;" parent="uOMRUYrI1pACzMCdl_Fx-6" vertex="1">
          <mxGeometry y="450" width="210" height="8" as="geometry" />
        </mxCell>
        <mxCell id="uOMRUYrI1pACzMCdl_Fx-30" value="Air, ocean etc" style="shape=folder;fontStyle=1;tabWidth=110;tabHeight=30;tabPosition=left;html=1;boundedLbl=1;labelInHeader=1;container=1;collapsible=0;recursiveResize=0;" parent="uOMRUYrI1pACzMCdl_Fx-10" vertex="1">
          <mxGeometry x="270" y="45" width="150" height="100" as="geometry" />
        </mxCell>
      </root>
    </mxGraphModel>
  </diagram>
</mxfile>
